<svg width="80" height="80" viewBox="0 0 80 80" fill="none" xmlns="http://www.w3.org/2000/svg">
<circle cx="40" cy="40" r="40" fill="black"/>
<path d="M50.4218 46.5565C55.7216 45.1082 59.6183 40.2592 59.6183 34.5C59.6183 27.7162 54.214 22.1948 47.477 22.0066V22H28.0663H20L26.6951 30.3311H28.0663V30.3333H47.181C49.4535 30.3664 51.2857 32.2186 51.2857 34.4989C51.2857 36.8002 49.4204 38.6656 47.1194 38.6656H44.0811H33.3913L48.9285 58H59.6172L50.4218 46.5565Z" fill="white"/>
<path d="M29 58C32.0376 58 34.5 55.5376 34.5 52.5C34.5 49.4624 32.0376 47 29 47C25.9624 47 23.5 49.4624 23.5 52.5C23.5 55.5376 25.9624 58 29 58Z" fill="white"/>
</svg>
