<svg width="13" height="14" viewBox="0 0 13 14" fill="none" xmlns="http://www.w3.org/2000/svg">
<path d="M8.88536 4.17093L5.1147 7.94227C5.05102 8.00376 5.00023 8.07733 4.96529 8.15866C4.93036 8.24 4.91196 8.32748 4.91119 8.416C4.91043 8.50452 4.92729 8.59231 4.96081 8.67424C4.99433 8.75617 5.04384 8.8306 5.10643 8.8932C5.16903 8.95579 5.24346 9.00529 5.32539 9.03881C5.40732 9.07233 5.49511 9.0892 5.58363 9.08843C5.67215 9.08766 5.75963 9.06927 5.84096 9.03433C5.9223 8.99939 5.99586 8.94861 6.05736 8.88493L9.82869 5.11427C10.2038 4.73916 10.4145 4.23041 10.4145 3.69993C10.4145 3.16945 10.2038 2.6607 9.82869 2.2856C9.45359 1.91049 8.94484 1.69976 8.41436 1.69976C7.88388 1.69976 7.37513 1.91049 7.00003 2.2856L3.22869 6.05693C2.91275 6.36502 2.66111 6.73277 2.4884 7.13886C2.31569 7.54496 2.22532 7.9813 2.22256 8.42259C2.21979 8.86387 2.30468 9.30131 2.47229 9.70954C2.63991 10.1178 2.88691 10.4886 3.19897 10.8007C3.51104 11.1127 3.88195 11.3596 4.2902 11.5272C4.69845 11.6947 5.1359 11.7796 5.57719 11.7767C6.01847 11.7739 6.4548 11.6835 6.86087 11.5107C7.26693 11.3379 7.63465 11.0863 7.94269 10.7703L11.714 6.9996L12.6567 7.94227L8.88536 11.7136C8.452 12.147 7.93752 12.4907 7.37131 12.7253C6.80509 12.9598 6.19823 13.0805 5.58536 13.0805C4.9725 13.0805 4.36563 12.9598 3.79941 12.7253C3.2332 12.4907 2.71872 12.147 2.28536 11.7136C1.852 11.2802 1.50824 10.7658 1.2737 10.1995C1.03917 9.63333 0.918457 9.02647 0.918457 8.4136C0.918457 7.80073 1.03917 7.19387 1.2737 6.62765C1.50824 6.06144 1.852 5.54696 2.28536 5.1136L6.05736 1.34293C6.68604 0.735739 7.52804 0.399758 8.40203 0.407353C9.27602 0.414947 10.1121 0.765511 10.7301 1.38354C11.3481 2.00156 11.6987 2.83761 11.7063 3.7116C11.7139 4.58559 11.3779 5.42759 10.7707 6.05627L7.00003 9.82893C6.81425 10.0147 6.59371 10.162 6.351 10.2625C6.10829 10.363 5.84816 10.4147 5.58546 10.4147C5.32276 10.4146 5.06264 10.3629 4.81996 10.2623C4.57727 10.1618 4.35676 10.0144 4.17103 9.8286C3.9853 9.64282 3.83797 9.42228 3.73747 9.17957C3.63697 8.93686 3.58526 8.67673 3.58529 8.41403C3.58532 8.15133 3.63709 7.89122 3.73765 7.64853C3.83821 7.40584 3.98558 7.18533 4.17136 6.9996L7.94269 3.22827L8.88536 4.17093Z" fill="white"/>
</svg>
