<svg width="14" height="14" viewBox="0 0 14 14" fill="none" xmlns="http://www.w3.org/2000/svg">
<path d="M3.86084 12.8823L0.333504 13.6663L1.1175 10.139C0.601192 9.17326 0.331855 8.09477 0.333504 6.99967C0.333504 3.31767 3.31817 0.333008 7.00017 0.333008C10.6822 0.333008 13.6668 3.31767 13.6668 6.99967C13.6668 10.6817 10.6822 13.6663 7.00017 13.6663C5.90507 13.668 4.82658 13.3987 3.86084 12.8823ZM4.05417 11.4737L4.4895 11.707C5.26187 12.1198 6.12443 12.3348 7.00017 12.333C8.055 12.333 9.08615 12.0202 9.96321 11.4342C10.8403 10.8481 11.5239 10.0152 11.9275 9.04065C12.3312 8.06611 12.4368 6.99376 12.231 5.95919C12.0252 4.92463 11.5173 3.97432 10.7714 3.22844C10.0255 2.48256 9.07522 1.97461 8.04065 1.76882C7.00609 1.56303 5.93373 1.66865 4.95919 2.07232C3.98465 2.47598 3.1517 3.15957 2.56567 4.03663C1.97963 4.9137 1.66684 5.94484 1.66684 6.99967C1.66684 7.88901 1.8835 8.74501 2.2935 9.51034L2.52617 9.94567L2.0895 11.9103L4.05417 11.4737Z" fill="white"/>
</svg>
