<svg width="16" height="16" viewBox="0 0 16 16" fill="none" xmlns="http://www.w3.org/2000/svg">
<path d="M11.313 3.41058V2.20277C11.313 2.09808 11.1927 2.04027 11.1114 2.10433L4.0677 7.60589C4.00785 7.65243 3.95943 7.71203 3.92612 7.78013C3.8928 7.84824 3.87549 7.92305 3.87549 7.99886C3.87549 8.07467 3.8928 8.14949 3.92612 8.21759C3.95943 8.28569 4.00785 8.34529 4.0677 8.39183L11.1114 13.8934C11.1943 13.9575 11.313 13.8996 11.313 13.795V12.5871C11.313 12.5106 11.2771 12.4371 11.2177 12.3903L5.5927 7.99964L11.2177 3.60745C11.2771 3.56058 11.313 3.48714 11.313 3.41058Z" fill="white"/>
</svg>
