<svg width="12" height="14" viewBox="0 0 12 14" fill="none" xmlns="http://www.w3.org/2000/svg">
<path d="M4.66667 0.333008C5.03467 0.333008 5.33333 0.631674 5.33333 0.999674V3.66634C5.33333 4.03434 5.03467 4.33301 4.66667 4.33301H3.33333V5.66634H6.66667V4.99967C6.66667 4.63167 6.96533 4.33301 7.33333 4.33301H11.3333C11.7013 4.33301 12 4.63167 12 4.99967V7.66634C12 8.03434 11.7013 8.33301 11.3333 8.33301H7.33333C6.96533 8.33301 6.66667 8.03434 6.66667 7.66634V6.99967H3.33333V10.9997H6.66667V10.333C6.66667 9.96501 6.96533 9.66634 7.33333 9.66634H11.3333C11.7013 9.66634 12 9.96501 12 10.333V12.9997C12 13.3677 11.7013 13.6663 11.3333 13.6663H7.33333C6.96533 13.6663 6.66667 13.3677 6.66667 12.9997V12.333H2.66667C2.29867 12.333 2 12.0343 2 11.6663V4.33301H0.666667C0.298667 4.33301 0 4.03434 0 3.66634V0.999674C0 0.631674 0.298667 0.333008 0.666667 0.333008H4.66667ZM10.6667 10.9997H8V12.333H10.6667V10.9997ZM10.6667 5.66634H8V6.99967H10.6667V5.66634ZM4 1.66634H1.33333V2.99967H4V1.66634Z" fill="white"/>
</svg>
